<?xml version="1.0" encoding="UTF-8"?>
<svg version="1.1" xmlns="http://www.w3.org/2000/svg" width="2000" height="1500">
<path d="M0 0 C660 0 1320 0 2000 0 C2000 495 2000 990 2000 1500 C1340 1500 680 1500 0 1500 C0 1005 0 510 0 0 Z " fill="#000000" transform="translate(0,0)"/>
<path d="M0 0 C1.70571489 -0.00542553 3.41142508 -0.0125506 5.11712646 -0.02124023 C9.73272852 -0.03942259 14.34797159 -0.0324279 18.96357965 -0.01972389 C23.8001007 -0.0095731 28.63659171 -0.01899503 33.47311401 -0.02526855 C41.59183249 -0.03253751 49.71040523 -0.02297554 57.82910156 -0.00390625 C67.21097067 0.01787571 76.59249222 0.0107985 85.97435296 -0.01121187 C94.03741653 -0.0293698 102.10037557 -0.03192271 110.16345298 -0.0214572 C114.97582883 -0.01522632 119.78804134 -0.01437579 124.60040665 -0.02760315 C129.1231716 -0.03916726 133.64548864 -0.03112577 138.16820526 -0.00802612 C139.82661826 -0.00274265 141.48506904 -0.00424665 143.14346695 -0.01307678 C145.40980093 -0.02403042 147.67470528 -0.01027317 149.94094849 0.00964355 C151.84177028 0.01190571 151.84177028 0.01190571 153.78099251 0.01421356 C159.02384116 0.78286641 162.08202008 3.23222444 165.52685547 7.14257812 C168.23466762 10.953573 168.34425182 13.04509337 168.36152649 17.71600342 C168.36520318 18.35868015 168.36887987 19.00135687 168.37266797 19.66350865 C168.38372084 21.8267872 168.38755135 23.99001773 168.39135742 26.15332031 C168.3976209 27.70051222 168.4042676 29.24770262 168.41127014 30.79489136 C168.42869141 35.00578005 168.43923514 39.21665739 168.44747567 43.4275732 C168.45262383 46.05787033 168.45869967 48.68816392 168.4649868 51.31845856 C168.48404271 59.54641453 168.49827255 67.77436151 168.50659877 76.00233531 C168.51637128 85.50300555 168.54268939 95.00344281 168.58309966 104.50403094 C168.61325375 111.84508295 168.628067 119.18606816 168.63137978 126.52718091 C168.63373124 130.91268316 168.64270376 135.29793663 168.66784096 139.6833725 C168.69111421 143.81039994 168.69535807 147.93701468 168.68507957 152.06409073 C168.6845839 153.57739001 168.69091362 155.09070954 168.70463562 156.60394669 C168.72234974 158.67353063 168.71525296 160.7416327 168.70210266 162.81121826 C168.70449101 163.9682362 168.70687937 165.12525414 168.7093401 166.31733322 C167.92709003 171.37484741 165.3844517 174.46163762 161.65185547 177.83007812 C157.52115619 180.68979301 154.25321553 180.64811852 149.3396759 180.66474915 C148.6363026 180.66842583 147.93292929 180.67210252 147.20824164 180.67589062 C144.84544475 180.68692559 142.48269185 180.69077099 140.11987305 180.69458008 C138.42799744 180.70084492 136.73612321 180.70749174 135.04425049 180.7144928 C129.48247231 180.73553476 123.92069386 180.74589593 118.35888672 180.75585938 C116.44383924 180.75990701 114.52879191 180.76402393 112.61374474 180.76820946 C103.61585213 180.78726214 94.61796773 180.8014925 85.62005883 180.80982143 C75.23648961 180.81959181 64.85313368 180.84590582 54.4696396 180.88632232 C46.44234246 180.9164943 38.41510641 180.93129137 30.38775367 180.93460244 C25.59420447 180.93695188 20.80088311 180.94589838 16.00739479 180.97106361 C11.49541441 180.99436798 6.9838115 180.99856809 2.4717865 180.98830223 C0.81903515 180.98780732 -0.83373493 180.99411462 -2.48642921 181.00785828 C-19.52497552 181.14157964 -19.52497552 181.14157964 -24.78564453 176.51757812 C-30.34763708 170.18955627 -29.35083768 162.46700828 -29.30322266 154.43774414 C-29.30864801 152.90290667 -29.31577298 151.36807441 -29.32446289 149.83325195 C-29.34265183 145.67817252 -29.33564679 141.52349171 -29.32294655 137.36840558 C-29.312794 133.01194542 -29.32221865 128.65551856 -29.32849121 124.29905701 C-29.33576184 116.98308204 -29.32619612 109.66726876 -29.30712891 102.35131836 C-29.28536937 93.90505395 -29.29240711 85.45917594 -29.31443453 77.01292092 C-29.33261496 69.74983631 -29.33513372 62.48686771 -29.32467985 55.2237677 C-29.31845837 50.89085464 -29.31757193 46.55812289 -29.33082581 42.22522163 C-29.34242199 38.14976897 -29.3342904 34.07481193 -29.31124878 29.99941254 C-29.30598135 28.50793466 -29.30744167 27.01641472 -29.31629944 25.52495384 C-29.4014389 9.72683553 -29.4014389 9.72683553 -24.78564453 4.51757812 C-18.3169689 -1.45989904 -8.19610811 -0.04375662 0 0 Z " fill="#103358" transform="translate(279.78564453125,659.482421875)"/>
<path d="M0 0 C40.26 0 80.52 0 122 0 C122.04125 17.77875 122.0825 35.5575 122.125 53.875 C122.14320801 59.49515137 122.16141602 65.11530273 122.18017578 70.90576172 C122.18920898 77.75219727 122.18920898 77.75219727 122.19088745 80.95413208 C122.19396491 83.19738558 122.20101189 85.44063571 122.21115112 87.68386841 C122.22571923 91.07559994 122.2278144 94.46712875 122.22705078 97.85888672 C122.234247 98.86347364 122.24144321 99.86806057 122.2488575 100.90308952 C122.2461025 101.81266977 122.24334751 102.72225002 122.24050903 103.65939331 C122.24235262 104.45397886 122.24419621 105.24856441 122.24609566 106.06722832 C122 108 122 108 120 110 C117.87981987 110.24609566 117.87981987 110.24609566 115.2038269 110.24050903 C114.19137909 110.24325836 113.17893127 110.24600769 112.13580322 110.24884033 C110.46345612 110.2380545 110.46345612 110.2380545 108.75732422 110.22705078 C107.5866037 110.22734283 106.41588318 110.22763489 105.20968628 110.22793579 C101.99496203 110.22677919 98.78041071 110.21673198 95.56572104 110.20278788 C92.20781292 110.19030592 88.84990161 110.18911203 85.49197388 110.18673706 C79.13129983 110.18051481 72.77069434 110.16409398 66.41005051 110.14403808 C58.45957807 110.11951213 50.50909456 110.1085474 42.55859375 110.09765625 C28.3723424 110.07816285 14.18624068 110.03810091 0 110 C0 73.7 0 37.4 0 0 Z " fill="#000000" transform="translate(314,718)"/>
<path d="M0 0 C1.7114331 -0.00270511 3.42286468 -0.00659591 5.1342926 -0.01159668 C8.69685704 -0.01744555 12.25901642 -0.00908084 15.8215332 0.00976562 C20.34085895 0.03253506 24.85923295 0.01941543 29.37852383 -0.00452423 C32.90577595 -0.01912336 36.43281022 -0.01431214 39.96006966 -0.00401306 C41.62428977 -0.00138361 43.28853102 -0.00447879 44.95272636 -0.01393127 C58.93248137 -0.07593896 72.57716725 1.50033465 85.12890625 8.21875 C85.78785889 8.56341309 86.44681152 8.90807617 87.12573242 9.26318359 C105.14520785 19.01851691 117.81640339 36.11243378 124.16015625 55.4453125 C131.29389397 79.64906549 129.83033046 107.94570117 117.79101562 130.44775391 C107.17190247 148.90683394 91.60099475 162.56058448 70.81640625 168.40625 C64.62306645 169.93523076 58.72043597 170.65783762 52.33325195 170.67651367 C51.60877365 170.67987228 50.88429535 170.6832309 50.13786316 170.68669128 C47.75595354 170.69614593 45.37411469 170.69814188 42.9921875 170.69921875 C41.32317578 170.70243605 39.65416434 170.70580047 37.9851532 170.70930481 C34.48920031 170.71528303 30.99327209 170.71714615 27.49731445 170.71655273 C23.04363919 170.7164514 18.59012436 170.73008005 14.13648701 170.74732494 C10.68840323 170.75851141 7.24035736 170.76046988 3.79225731 170.75994301 C2.15181108 170.76111403 0.51136359 170.76548583 -1.12906456 170.77327538 C-24.00399701 170.87169707 -43.68235705 165.37725743 -60.65234375 149.1875 C-74.16055878 135.01221263 -84.29408298 113.57785757 -84.31640625 93.671875 C-84.31769531 92.55554688 -84.31898438 91.43921875 -84.3203125 90.2890625 C-84.31644531 89.13148438 -84.31257812 87.97390625 -84.30859375 86.78125 C-84.31246094 85.63914062 -84.31632813 84.49703125 -84.3203125 83.3203125 C-84.30907174 73.54085309 -83.68882344 64.92666962 -80.49609375 55.65625 C-80.09245605 54.47736206 -80.09245605 54.47736206 -79.68066406 53.2746582 C-72.78943867 33.74080838 -59.85752141 17.71531688 -41.37109375 8.15625 C-40.48526611 7.69158325 -40.48526611 7.69158325 -39.58154297 7.2175293 C-26.76302424 1.01746924 -13.9656964 -0.07921147 0 0 Z M-45.7890625 41.625 C-59.23027046 57.93863577 -61.45941443 76.708643 -59.91015625 97.13671875 C-58.95779052 104.65681421 -56.75773639 110.86944524 -53.18359375 117.53125 C-52.5184375 118.81322266 -52.5184375 118.81322266 -51.83984375 120.12109375 C-45.14272505 132.19451052 -34.76271173 141.00571127 -21.49731445 145.10058594 C-13.99346058 147.09407417 -6.48142815 146.96509918 1.21875 146.9296875 C2.78853998 146.93171429 4.35832904 146.93463073 5.92811584 146.93838501 C9.20176244 146.94278126 12.4751617 146.93646612 15.7487793 146.92236328 C19.91200724 146.90528712 24.07465406 146.91511966 28.23786068 146.93308067 C31.47498322 146.94400428 34.71197165 146.940433 37.94909859 146.9326973 C39.48265212 146.93071814 41.01621846 146.93307267 42.549757 146.94013596 C59.55580447 147.00129249 73.85343854 144.00178501 86.5 131.96875 C100.21927222 117.53228143 104.58684161 99.75365832 104.12890625 80.390625 C103.27543154 62.42498244 95.67953853 47.77420346 82.6953125 35.53125 C73.31718213 27.5469335 61.85249299 24.45152584 49.73217773 24.35424805 C49.0499263 24.34767685 48.36767487 24.34110565 47.66474915 24.33433533 C45.42233131 24.31473989 43.17998016 24.30296778 40.9375 24.29296875 C40.1648839 24.28889322 39.3922678 24.2848177 38.59623909 24.28061867 C34.50288289 24.25981173 30.40955962 24.24548951 26.31616211 24.23608398 C22.12258116 24.22505863 17.92953648 24.19068858 13.73614407 24.15091228 C10.4818484 24.12456005 7.2276767 24.1163756 3.97328377 24.11280251 C2.42935649 24.10798078 0.88543305 24.09649562 -0.65838814 24.07776451 C-18.61692725 23.87349442 -33.15449679 28.41342263 -45.7890625 41.625 Z " fill="#2D71A7" transform="translate(782.18359375,664.46875)"/>
<path d="M0 0 C1.69619814 -0.00015554 3.39239662 -0.00165353 5.08859253 -0.00440979 C8.616679 -0.00578252 12.14435337 0.00657546 15.67236328 0.02954102 C20.15823569 0.05796614 24.64342753 0.05516113 29.12935066 0.0424509 C32.62301284 0.03544483 36.11652203 0.04333805 39.61016464 0.05570793 C41.26290167 0.06017164 42.91565541 0.06060459 44.56839371 0.05664253 C68.05539572 0.02666883 87.33512354 6.37349772 104.6171875 22.68359375 C118.49551946 36.99747964 127.24811484 57.5230516 127.9296875 77.49609375 C127.96964844 78.61242187 128.00960938 79.72875 128.05078125 80.87890625 C128.26972356 93.21694921 127.68045483 105.967292 122.9296875 117.49609375 C122.38828125 118.90955078 122.38828125 118.90955078 121.8359375 120.3515625 C114.1057266 139.9000766 100.20292288 156.26131792 80.7578125 164.90625 C68.18343884 169.9684685 56.60416736 170.82015284 43.19921875 170.83203125 C41.47824498 170.838474 39.75727226 170.84520341 38.03630066 170.85220337 C34.43978338 170.86412683 30.84336179 170.8678894 27.24682617 170.86669922 C22.67912613 170.86649653 18.11205168 170.89376951 13.5444994 170.92824364 C9.99158513 170.950682 6.43881727 170.9545316 2.88583946 170.95347977 C1.20402565 170.95581147 -0.47779375 170.96449459 -2.15953636 170.9801445 C-16.03852013 171.09719703 -28.83236273 169.39287204 -41.3203125 162.80859375 C-42.31224609 162.29703735 -42.31224609 162.29703735 -43.32421875 161.77514648 C-62.61502124 151.45784472 -74.48993825 133.92297292 -81.0703125 113.49609375 C-83.67872013 103.81293936 -84.58817418 94.56587266 -84.5078125 84.55859375 C-84.50096436 83.24262207 -84.49411621 81.92665039 -84.48706055 80.57080078 C-84.33292592 71.25922188 -83.50860538 63.22062195 -80.0703125 54.49609375 C-79.49216797 52.91248047 -79.49216797 52.91248047 -78.90234375 51.296875 C-71.67196271 32.64763977 -59.17505371 17.42060298 -41.3203125 8.18359375 C-40.72597412 7.87010986 -40.13163574 7.55662598 -39.51928711 7.23364258 C-26.72420955 0.98721362 -13.9586497 -0.10611673 0 0 Z M-45.8828125 41.89453125 C-58.14525658 56.47808082 -61.3517838 74.92150455 -60.0703125 93.49609375 C-58.29247291 110.58799714 -50.85878706 125.44148117 -37.6640625 136.515625 C-28.58238877 143.34125004 -18.55809439 146.6054198 -7.25146484 146.64135742 C-6.25274857 146.64639534 -6.25274857 146.64639534 -5.2338562 146.65153503 C-3.04130158 146.66100148 -0.84882377 146.6629864 1.34375 146.6640625 C2.8796695 146.66727958 4.4155887 146.67064399 5.95150757 146.67414856 C9.17096668 146.68013016 12.390399 146.68198961 15.60986328 146.68139648 C19.70821526 146.68129527 23.80639243 146.69490998 27.90470314 146.71216869 C31.07913988 146.72336598 34.25353551 146.72531329 37.42798996 146.72478676 C38.93725559 146.7259567 40.44652264 146.73032223 41.95576859 146.73811913 C59.70555282 146.82118667 73.49146127 144.46644 86.7421875 131.7890625 C100.870792 116.97925743 104.39965941 98.58178234 104.13671875 78.703125 C103.66740275 62.57074737 96.40225583 48.63910895 84.9296875 37.49609375 C84.08470703 36.62017578 84.08470703 36.62017578 83.22265625 35.7265625 C75.18325273 28.00012846 62.53519316 24.26181059 51.62426758 24.22143555 C50.58363159 24.21376915 50.58363159 24.21376915 49.52197266 24.20594788 C47.24763143 24.19214541 44.97359667 24.19300231 42.69921875 24.1953125 C41.10129181 24.19141887 39.50336589 24.18708284 37.90544128 24.18232727 C34.56086877 24.17488393 31.21640182 24.17514145 27.87182617 24.18041992 C23.61659174 24.18619516 19.36179534 24.16932176 15.10663319 24.14607525 C11.80604079 24.13123195 8.50555113 24.13048078 5.20493126 24.13358498 C3.63787663 24.13307651 2.07081551 24.12792944 0.50379372 24.11777306 C-18.16181092 24.01167962 -32.6991438 27.90801093 -45.8828125 41.89453125 Z " fill="#1E507C" transform="translate(1402.0703125,664.50390625)"/>
<path d="M0 0 C55.27393258 0 101.34738872 24.75248505 140.25 62.9375 C149.02965773 71.75091436 156.10811078 81.66216617 163 92 C163.33 61.64 163.66 31.28 164 0 C171.92 0 179.84 0 188 0 C188 56.1 188 112.2 188 170 C180.08 170 172.16 170 164 170 C163.7525 167.545625 163.505 165.09125 163.25 162.5625 C159.8396202 132.33105734 146.51243516 107.42263111 126.01953125 85.20703125 C124.26095093 83.28517848 122.59180225 81.32352511 120.9375 79.3125 C117.62866285 75.44920906 113.91321535 72.23852305 110 69 C109.49887695 68.57589844 108.99775391 68.15179687 108.48144531 67.71484375 C84.45718653 47.43334134 56.0908251 31.65287729 25 26 C25 73.52 25 121.04 25 170 C16.75 170 8.5 170 0 170 C0 113.9 0 57.8 0 0 Z " fill="#103358" transform="translate(1561,665)"/>
<path d="M0 0 C1.77312057 -0.00065712 1.77312057 -0.00065712 3.58206177 -0.00132751 C7.43989318 0.0007413 11.297275 0.02398206 15.1550293 0.04760742 C17.84929662 0.05489156 20.54356356 0.05762487 23.23783875 0.06047058 C29.57339809 0.06973965 35.90879937 0.09428258 42.24428958 0.12451905 C49.46571297 0.1582246 56.6871445 0.17458938 63.90862715 0.18960536 C78.74476573 0.22083775 93.58071339 0.27578419 108.41674805 0.34057617 C108.41674805 8.26057617 108.41674805 16.18057617 108.41674805 24.34057617 C104.91025635 24.34992187 101.40376465 24.35926758 97.79101562 24.36889648 C86.1720551 24.40274782 74.55325142 24.45814369 62.93443775 24.52447891 C55.89378835 24.56415529 48.85324888 24.59660526 41.8125 24.61157227 C35.0107078 24.62605218 28.20926901 24.66129316 21.40762901 24.70888519 C18.81990214 24.72365876 16.23212659 24.73161486 13.64435768 24.73246002 C-3.73656377 24.74383997 -17.90025179 25.02349464 -32.58325195 35.34057617 C-33.21875977 35.78014648 -33.85426758 36.2197168 -34.5090332 36.67260742 C-44.51619306 44.37212953 -51.58063121 59.03731542 -53.58325195 71.34057617 C-53.85919144 75.49037764 -53.86289617 79.62047541 -53.83325195 83.77807617 C-53.84098633 84.85895508 -53.8487207 85.93983398 -53.85668945 87.0534668 C-53.81506651 104.21252619 -48.00196891 119.29230038 -36.39575195 132.02807617 C-20.27118048 147.1515656 0.1937086 145.80032769 20.8190918 145.85229492 C23.3535701 145.86916762 25.88804017 145.88732128 28.42250061 145.9066925 C34.37185979 145.94911127 40.32119264 145.97877798 46.27064949 146.00201589 C53.05450249 146.02924323 59.83821741 146.07314231 66.62197101 146.11830461 C80.55350377 146.21068631 94.48504095 146.28037805 108.41674805 146.34057617 C108.41674805 154.26057617 108.41674805 162.18057617 108.41674805 170.34057617 C92.86482974 170.40849456 77.31300961 170.46367461 61.76098347 170.49601269 C54.53868077 170.51143196 47.31647727 170.532426 40.09423828 170.56689453 C33.7937868 170.59694925 27.49340724 170.616187 21.19288605 170.62284166 C17.86177141 170.626727 14.53102411 170.63736641 11.19994545 170.65776634 C7.46650896 170.67971017 3.73349114 170.68253598 0 170.68115234 C-1.08470078 170.69193817 -2.16940155 170.702724 -3.28697205 170.71383667 C-13.96649167 170.67132415 -24.23558698 168.69858505 -33.70825195 163.65307617 C-34.37783936 163.30639893 -35.04742676 162.95972168 -35.73730469 162.60253906 C-41.77116798 159.39725254 -47.30796916 155.69068289 -52.58325195 151.34057617 C-53.5287793 150.56520508 -53.5287793 150.56520508 -54.4934082 149.77416992 C-68.01349906 137.48597801 -77.59422247 115.85571349 -78.82373047 97.8112793 C-78.96108749 93.6725967 -79.02358783 89.54368156 -79.02075195 85.40307617 C-79.0208577 84.29984009 -79.0208577 84.29984009 -79.02096558 83.17431641 C-78.93197756 59.05101266 -71.25491269 38.60321449 -54.3527832 21.02026367 C-39.45292398 6.679453 -20.50745708 -0.20391789 0 0 Z " fill="#1E517E" transform="translate(569.583251953125,664.659423828125)"/>
<path d="M0 0 C64.68 0 129.36 0 196 0 C196 7.92 196 15.84 196 24 C167.62 24 139.24 24 110 24 C110 72.18 110 120.36 110 170 C102.08 170 94.16 170 86 170 C86 122.15 86 74.3 86 25 C57.62 25 29.24 25 0 25 C0 16.75 0 8.5 0 0 Z " fill="#2C6DA2" transform="translate(1108,665)"/>
<path d="M0 0 C7.92 0 15.84 0 24 0 C24 48.18 24 96.36 24 146 C69.54 146 115.08 146 162 146 C162 153.92 162 161.84 162 170 C108.54 170 55.08 170 0 170 C0 113.9 0 57.8 0 0 Z " fill="#3785C1" transform="translate(941,665)"/>
<path d="M0 0 C0.69364719 -0.00226556 1.38729439 -0.00453111 2.1019612 -0.00686532 C4.44352476 -0.01323299 6.78503087 -0.0123742 9.12660217 -0.0115509 C10.79836096 -0.01454067 12.47011905 -0.01794277 14.14187622 -0.02172852 C18.69552875 -0.03059122 23.24916251 -0.03290758 27.80282283 -0.0335443 C31.59778276 -0.03449149 35.39273828 -0.03816759 39.18769652 -0.0417164 C48.13738608 -0.04986956 57.08706557 -0.05229984 66.03675842 -0.05158997 C75.28384194 -0.05098891 84.53086716 -0.0615442 93.77793592 -0.07733363 C101.70403918 -0.09038766 109.63012334 -0.09577477 117.55623728 -0.09513456 C122.29589385 -0.09487894 127.03549866 -0.09776493 131.77514458 -0.10831261 C136.23118875 -0.11795775 140.68713129 -0.11809757 145.14317894 -0.11079597 C146.78231199 -0.10974565 148.42145124 -0.11213933 150.06057358 -0.11815643 C152.29107355 -0.12581657 154.52121728 -0.12127176 156.75170898 -0.11352539 C158.62745306 -0.11434254 158.62745306 -0.11434254 160.54109097 -0.1151762 C163.43934631 0.13371277 163.43934631 0.13371277 165.43934631 2.13371277 C165.43934631 12.69371277 165.43934631 23.25371277 165.43934631 34.13371277 C108.34934631 34.13371277 51.25934631 34.13371277 -7.56065369 34.13371277 C-7.56065369 0.01013542 -7.56065369 0.01013542 0 0 Z " fill="#000000" transform="translate(270.56065368652344,671.8662872314453)"/>
<path d="M0 0 C12.87 0 25.74 0 39 0 C39 36.3 39 72.6 39 110 C26.46 110 13.92 110 1 110 C0 109 0 109 -0.12304783 107.17465878 C-0.12212604 106.37177709 -0.12120424 105.5688954 -0.12025452 104.74168396 C-0.12162918 103.8231665 -0.12300385 102.90464905 -0.12442017 101.95829773 C-0.12082489 100.94266251 -0.11722961 99.92702728 -0.11352539 98.88061523 C-0.11367142 97.81733002 -0.11381744 96.7540448 -0.1139679 95.65853882 C-0.11326825 92.12520342 -0.10547343 88.59192 -0.09765625 85.05859375 C-0.09579225 82.61621632 -0.09436827 80.17383851 -0.09336853 77.73146057 C-0.08954189 71.28865536 -0.07971037 64.84587252 -0.06866455 58.40307617 C-0.05845356 51.83447574 -0.05387158 45.2658717 -0.04882812 38.69726562 C-0.03808823 25.79816565 -0.02049025 12.89908818 0 0 Z " fill="#000000" transform="translate(263,718)"/>
<path d="M0 0 C3 2.0625 3 2.0625 5 5 C5.06944397 8.95830645 4.5699479 11.14507816 2.375 14.4375 C-1.02982754 16.67751812 -3.006899 16.70054403 -7 16 C-10 13.4375 -10 13.4375 -12 10 C-12.06521697 6.15219858 -11.86990359 4.03719275 -9.375 1.0625 C-5.97380129 -0.4590889 -3.68717269 -0.51749792 0 0 Z " fill="#13395F" transform="translate(423,681)"/>
<path d="M0 0 C2.99097304 2.54232708 3.84202557 4.1574697 4.5625 8 C3.78698584 12.13607554 2.38677089 13.54999553 -1 16 C-4.95779649 16.62491523 -7.00863886 16.61006839 -10.4375 14.5 C-12.64099302 10.97441116 -12.79669284 8.04985528 -12 4 C-9.20664469 -0.65559218 -5.02394308 -1.18392101 0 0 Z " fill="#12365C" transform="translate(400,681)"/>
<path d="M0 0 C2.5 1.5625 2.5 1.5625 4 4 C4.5625 7.4375 4.5625 7.4375 4 11 C1.55401113 14.38121991 0.10703441 15.76936783 -4 16.625 C-8.10703441 15.76936783 -9.55401113 14.38121991 -12 11 C-12.62491523 7.04220351 -12.61006839 4.99136114 -10.5 1.5625 C-6.97873756 -0.63828902 -4.04560357 -0.80414661 0 0 Z " fill="#103458" transform="translate(376,681)"/>
</svg>
